<?xml version="1.0" encoding="UTF-8"?>
<svg width="65px" height="65px" viewBox="0 0 65 65" version="1.1" xmlns="http://www.w3.org/2000/svg" xmlns:xlink="http://www.w3.org/1999/xlink">
    <!-- Generator: Sketch 59.1 (86144) - https://sketch.com -->
    <title>Group 2 Copy</title>
    <desc>Created with Sketch.</desc>
    <g id="Page-1" stroke="none" stroke-width="1" fill="none" fill-rule="evenodd">
        <g id="Homescreen" transform="translate(-29.000000, -610.000000)">
            <g id="Group-2-Copy" transform="translate(29.000000, 610.000000)">
                <circle id="Oval" fill="#FFFFFF" cx="32.5" cy="32.5" r="32.5"></circle>
                <g id="air-freight" transform="translate(15.000000, 15.000000)" fill-rule="nonzero">
                    <path d="M31.6376812,15.413318 C32.1207729,15.9641332 32.1207729,16.8580023 31.6376812,17.4088174 L28.4896135,21 L28,17.5683582 L29.8891304,15.413318 C30.3719807,14.8622273 31.1548309,14.8622273 31.6376812,15.413318 L31.6376812,15.413318 Z" id="Path" fill="#FAFAFF"></path>
                    <path d="M19.5868744,3.36231884 C20.1377085,3.8451691 20.1377085,4.62801932 19.5868744,5.11086958 L17.43176,7 L14,6.51038652 L17.5913063,3.36231884 C18.1421404,2.87922705 19.0360403,2.87922705 19.5868744,3.36231884 L19.5868744,3.36231884 Z" id="Path" fill="#FAFAFF"></path>
                    <g id="Group" transform="translate(1.000000, 5.000000)" fill="#FF6977">
                        <path d="M21.0895888,3.16448135 L12.7532506,11.5005554 L0.969888168,2.96775752 C0.170317946,2.3889405 0.0784254639,1.23157051 0.776597084,0.533398893 C1.1417905,0.168469585 1.65934586,0.00132027739 2.16924353,0.0839707506 L21.0895888,3.16448135 Z" id="Path"></path>
                        <path d="M7.6157215,17.3663589 L7.68384872,17.402799 C6.82803391,18.8176264 6.05883048,20.3481115 5.4483264,21.6633887 L5.38151952,21.6324938 L0.717712009,18.4038462 C-0.0562445198,17.8678066 -0.156322844,16.7619282 0.509633562,16.0959717 C0.900440671,15.7059568 1.47292028,15.5599323 2.00209429,15.7154629 L7.6157215,17.3663589 Z" id="Path"></path>
                        <path d="M13.3183366,27.0100524 C13.4738672,27.5392264 13.3278427,28.111706 12.9378278,28.5025131 C12.2718713,29.1684696 11.1659929,29.0683913 10.6299534,28.2944347 L7.40130571,23.6306272 L7.3701468,23.5638203 C8.65136038,22.9688957 10.1364274,22.2239857 11.5200958,21.3951049 L11.6674406,21.3964252 L13.3183366,27.0100524 Z" id="Path"></path>
                        <path d="M28.9498288,26.864556 C29.0324793,27.3741896 28.8653299,27.892009 28.5004006,28.2572024 C27.801965,28.9553741 26.644859,28.8634816 26.066042,28.0639114 L17.5329801,16.2805489 L25.8693182,7.94421072 L28.9498288,26.864556 Z" id="Path"></path>
                    </g>
                    <path d="M33.4218057,1.57819429 C32.2817063,0.438905615 29.7647864,1.04070731 27.3829812,2.87881011 C26.4420412,3.60707934 27.4683738,2.639927 10.2377135,19.8705873 C9.37649133,20.7318096 8.53310426,21.92028 7.75835552,23.20225 C5.62164878,26.7346934 4.00297248,30.9929741 4,31 C4.00675573,30.9970275 8.16937497,29.4153727 11.6842535,27.3100126 C13.00919,26.516618 14.2433293,25.6483698 15.1294127,24.7622865 C32.2763017,7.61512716 31.3699512,8.58741387 32.1211899,7.61701878 C33.9592927,5.23494342 34.5610944,2.71829367 33.4218057,1.57819429 Z" id="Path" fill="#DFF6FC"></path>
                    <path d="M16.2931758,17.2931758 C15.9022747,17.6829053 15.9022747,18.3159231 16.2931758,18.7068242 C16.6840769,19.0977253 17.3167041,19.0977253 17.7068242,18.7068242 C18.0977253,18.3159231 18.0977253,17.6829053 17.7068242,17.2931758 C17.3167041,16.9022747 16.6840769,16.9022747 16.2931758,17.2931758 Z" id="Path" fill="#000000"></path>
                    <path d="M27.3592635,1.99975421 C26.1862077,2.90792579 25.8665747,3.37603075 21.7062721,7.49337798 L19.2122268,7.08722415 L20.3567105,5.94273037 C21.1583298,5.14110401 21.1585968,3.84413565 20.3567105,3.04250929 C19.5553583,2.24115001 18.2576002,2.240883 17.456248,3.04250929 L14.2236021,6.27518364 L2.91815347,4.43454066 C2.18756375,4.31597901 1.44015123,4.55764182 0.917309644,5.08048801 C-0.0880522882,6.08585885 0.0483991761,7.7491934 1.1952862,8.57912499 L12.4614817,16.7379826 L10.3522243,18.8475257 C9.62937839,19.5703779 8.86861448,20.5645334 8.0867553,21.8059593 L2.83270438,20.2609194 C2.05725389,20.0331422 1.21985281,20.2464997 0.647076897,20.8182126 C-0.328110842,21.7934089 -0.180711162,23.4129505 0.952023302,24.1974868 L5.25919153,27.1791522 C4.50937576,28.8339418 4.05355826,30.0305066 4.032463,30.085782 C3.93686686,30.3373249 3.99801635,30.6217127 4.18814057,30.8118386 C4.37933291,31.0030326 4.66398516,31.0625805 4.91419083,30.9675175 C4.96946566,30.9466891 6.16601999,30.4906006 7.82079501,29.7407782 L10.8027012,34.0482514 C11.5885659,35.182865 13.2080931,35.3265276 14.1822127,34.3523994 C14.7536535,33.7801525 14.9670092,32.942744 14.738967,32.1672867 L13.1942076,26.9134566 C14.4364238,26.1310565 15.4300365,25.3702859 16.1526153,24.6479677 L18.2621398,22.5384247 L26.4206587,33.8047193 C27.2519181,34.9534856 28.915238,35.087001 29.9195319,34.0826983 C30.4421065,33.5601191 30.6837671,32.812166 30.5654735,32.0813028 L28.7248468,20.7765558 L31.9572256,17.5441485 C32.7588449,16.7425222 32.7588449,15.4447527 31.9572256,14.6433935 C31.1558734,13.8417671 29.8589164,13.8417671 29.0572971,14.6433935 L27.9125463,15.7878872 L27.5066631,13.29382 C31.6282466,9.12920834 32.0888706,8.81704941 32.9975683,7.64398325 C32.9986364,7.64264812 32.9999716,7.64104597 33.0010396,7.63944375 C35.1094959,4.90691805 35.6029644,2.14715518 34.2280352,0.77167975 C32.8528389,-0.602727493 30.0928333,-0.109788754 27.3592635,1.99975421 Z M18.4228908,4.0094277 C18.6899193,3.74212993 19.1227723,3.74212993 19.3900678,4.0094277 C19.6573632,4.27672547 19.6570962,4.70851418 19.3900678,4.97581195 L17.5491739,6.816455 L15.886388,6.54568578 L18.4228908,4.0094277 Z M1.99690551,7.47148142 C1.52907174,7.13315344 1.47539898,6.45569643 1.88421949,6.04713941 C2.09704111,5.83404883 2.40198758,5.7355145 2.69892317,5.78384705 L20.5150584,8.68460215 L13.4406749,15.7587809 L1.99690551,7.47148142 Z M1.61371973,21.785398 C1.83214893,21.5672339 2.1515149,21.4855224 2.44711537,21.5725745 L7.36123914,23.0177449 C6.85869165,23.8978783 6.35160469,24.8701373 5.84585292,25.9225055 L1.73041112,23.0735544 C1.29862621,22.7744799 1.24201619,22.1568378 1.61371973,21.785398 Z M13.2150358,33.3862821 C12.8465366,33.7547845 12.2280988,33.7051169 11.9266238,33.2698567 L9.07769773,29.1541117 C10.1308578,28.6478214 11.1033752,28.1404629 11.9824327,27.6389791 L13.4273234,32.5528791 C13.5143747,32.8487492 13.432931,33.168118 13.2150358,33.3862821 Z M30.024207,15.6100447 C30.2912354,15.343014 30.7232873,15.342747 30.9905828,15.6100447 C31.2578782,15.8773426 31.2576112,16.3099324 30.9905828,16.5772302 L28.45408,19.1134882 L28.1835802,17.4506878 L30.024207,15.6100447 Z M29.215912,32.300535 C29.2642441,32.5982743 29.1657107,32.9032235 28.952889,33.116047 C28.5462048,33.5227348 27.8682196,33.4730671 27.5282925,33.0030929 L19.2410659,21.5594899 L26.3154494,14.4850442 L29.215912,32.300535 Z M15.1859725,23.6810493 C14.4337535,24.433542 13.3327953,25.2458496 11.9138064,26.0958085 C10.0691742,27.2005147 7.88621695,28.2467411 5.91714952,29.0830815 C6.77617989,27.0605906 7.84215728,24.8423661 8.97061929,22.9766222 C9.79600411,21.6110269 10.5861412,20.5469093 11.3191341,19.8141769 C28.0174885,3.15573033 27.0281482,4.01503533 28.041521,3.20459697 C29.1657107,3.13276572 30.1553179,3.46655419 30.8442512,4.15549347 C31.5331845,4.84443289 31.867237,5.83431585 31.7954064,6.95824827 C30.983106,7.97403333 31.8322563,6.99429744 15.1859725,23.6810493 Z M32.9652578,5.16193244 C32.7468286,4.40837162 32.3588363,3.73652224 31.811161,3.18884221 C31.2634858,2.64142913 30.5916424,2.25316645 29.8383552,2.03473525 C30.8276955,1.53298445 32.4936857,0.971151741 33.2613923,1.73833115 C33.8675468,2.34475794 33.7169428,3.6796447 32.9652578,5.16193244 L32.9652578,5.16193244 Z" id="Shape" fill="#000000"></path>
                    <path d="M19.9393203,14.1820444 L18.1820388,15.9391365 C17.9393204,16.1818623 17.9393204,16.5753209 18.1820388,16.8180467 C18.4247573,17.0607725 18.8179612,17.0605297 19.0609224,16.8180467 L20.8179612,15.0607118 C21.0606796,14.8182287 21.0606796,14.4247702 20.8179612,14.1820444 C20.5752427,13.9393185 20.1820388,13.9393185 19.9393203,14.1820444 L19.9393203,14.1820444 Z" id="Path" fill="#000000"></path>
                    <path d="M24.9395134,9.1820057 L23.1818237,10.9394527 C22.9393921,11.182127 22.9393921,11.575502 23.1818237,11.8181763 C23.4247406,12.0606079 23.817873,12.0606079 24.0605473,11.8181763 L25.8179943,10.0607292 C26.0606686,9.81805494 26.0606686,9.42467997 25.8179943,9.1820057 C25.57532,8.93933143 25.1821877,8.93933143 24.9395134,9.1820057 L24.9395134,9.1820057 Z" id="Path" fill="#000000"></path>
                </g>
            </g>
        </g>
    </g>
</svg>