<?xml version="1.0" encoding="UTF-8"?>
<svg width="65px" height="65px" viewBox="0 0 65 65" version="1.1" xmlns="http://www.w3.org/2000/svg" xmlns:xlink="http://www.w3.org/1999/xlink">
    <!-- Generator: Sketch 59.1 (86144) - https://sketch.com -->
    <title>Group 4</title>
    <desc>Created with Sketch.</desc>
    <g id="Page-1" stroke="none" stroke-width="1" fill="none" fill-rule="evenodd">
        <g id="Homescreen" transform="translate(-282.000000, -495.000000)">
            <g id="Group-4" transform="translate(282.000000, 495.000000)">
                <circle id="Oval-Copy-9" fill="#FFFFFF" cx="32.5" cy="32.5" r="32.5"></circle>
                <g id="hotel" transform="translate(15.000000, 13.000000)" fill-rule="nonzero">
                    <path d="M10,4 L10,1.3874092 C10,1.17342613 10.1645606,1 10.3676048,1 L23.6323952,1 C23.8354394,1 24,1.17342613 24,1.3874092 L24,4 L10,4 Z" id="Path" fill="#395D6E"></path>
                    <path d="M23.5818815,1 L21,1 C21.2309451,1 21.4181185,1.17342613 21.4181185,1.3874092 L21.4181185,4 L24,4 L24,1.3874092 C24,1.17342613 23.8128267,1 23.5818815,1 Z" id="Path" fill="#1B3D4F"></path>
                    <path d="M8,3.37095124 L8,37 L28,37 L28,3.37095124 C28,3.16634849 27.8364998,3 27.6354003,3 L8.36459965,3 C8.16321537,3 8,3.16634849 8,3.37095124 Z" id="Path" fill="#DFF6FC"></path>
                    <path d="M27.5837398,3 L25,3 C25.2299186,3 25.4162602,3.16634849 25.4162602,3.37095124 L25.4162602,37 L28,37 L28,3.37095124 C28,3.16634849 27.8136585,3 27.5837398,3 L27.5837398,3 Z" id="Path" fill="#BED0E9"></path>
                    <polygon id="Path" fill="#B4DD7F" points="14 29 21 29 21 37 14 37"></polygon>
                    <polygon id="Path" fill="#B4DD7F" points="14 29 21 29 21 31 14 31"></polygon>
                    <path d="M31.5001489,6 C30.1192164,6 29,7.05808555 29,8.36331102 L29,17.6364075 C29,18.9419145 30.1192164,20 31.5001489,20 C32.8807837,20 34,18.9419145 34,17.6364075 L34,8.36331102 C34,7.05808555 32.8807837,6 31.5001489,6 L31.5001489,6 Z" id="Path" fill="#FF6977"></path>
                    <path d="M11,8.13719185 L11,12 L14,12 L14,8.13719185 C14,8.06136118 13.9396734,8 13.8651212,8 L11.1348788,8 C11.0603266,8 11,8.06162919 11,8.13719185 Z" id="Path" fill="#B4DD7F"></path>
                    <path d="M20,8.13719185 L20,12 L23,12 L23,8.13719185 C23,8.06136118 22.9396734,8 22.8651212,8 L20.1348788,8 C20.0603266,8 20,8.06162919 20,8.13719185 Z" id="Path" fill="#B4DD7F"></path>
                    <path d="M11,18.1714898 L11,23 L14,23 L14,18.1714898 C14,18.0767015 13.9396734,18 13.8651212,18 L11.1348788,18 C11.0603266,18 11,18.0767015 11,18.1714898 Z" id="Path" fill="#B4DD7F"></path>
                    <path d="M20,18.1714898 L20,23 L23,23 L23,18.1714898 C23,18.0767015 22.9396734,18 22.8651212,18 L20.1348788,18 C20.0603266,18 20,18.0767015 20,18.1714898 Z" id="Path" fill="#B4DD7F"></path>
                    <path d="M4.19970829,30.0270329 C3.76499942,29.9291525 3.24549617,30.1046295 3.03185838,30.4447341 C3.01809302,30.4669046 2.98202793,30.4669046 2.96826258,30.4447341 C2.75462479,30.1046295 2.23512161,29.9289167 1.80041274,30.0270329 C1.05268048,30.19567 0.818669976,30.9964018 1.14132911,31.5383993 C1.49372134,32.1303983 2.72158802,32.8528258 2.95972813,32.9893865 C2.98423039,33.0035378 3.01589057,33.0035378 3.0403929,32.9893865 C3.27880823,32.8528258 4.50667491,32.1303983 4.85879185,31.5383993 C5.18117569,30.9964018 4.94744048,30.19567 4.19970829,30.0270329 Z" id="Path" fill="#FF6977"></path>
                    <path d="M32.0285329,20.672821 C33.66693,20.672821 35,19.3310852 35,17.6817474 L35,8.13072203 C35,6.48138428 33.66693,5.13993834 32.0285329,5.13993834 C30.9716976,5.13993834 30.0421779,5.69773863 29.5150565,6.53646847 L27.8893333,6.53646847 L27.8893333,3.8013916 C27.8893333,3.28997803 27.4757014,2.87365723 26.9675909,2.87365723 L24.7977516,2.87365723 L24.7977516,0.927734375 C24.7977516,0.416030902 24.3844078,0 23.8760092,0 L10.5718095,0 C10.0634109,0 9.65006712,0.416030902 9.65006712,0.927734375 L9.65006712,2.87394712 L7.48022779,2.87394712 C6.97211728,2.87394712 6.55848536,3.28997803 6.55848536,3.8016815 L6.55848536,36.8867187 L3.19873423,36.8867187 L3.19873423,33.8878174 C4.51567372,32.9658813 4.95350137,32.2897949 5.08312144,32.0340882 C5.3452419,31.5165863 5.35964416,30.8619538 5.12114331,30.3256073 C4.90856643,29.8472443 4.52489114,29.5132599 4.0415525,29.3851166 C3.55821378,29.2569733 3.03742931,29.3712005 2.64568878,29.6567688 C2.25394825,29.3712005 1.73316378,29.2572632 1.24982513,29.3851166 C0.766198389,29.5132599 0.382811132,29.8472443 0.169946296,30.3256073 C-0.0685546296,30.8619538 -0.0538643413,31.5165863 0.208256197,32.0340882 C0.337876188,32.2897949 0.775703839,32.9661712 2.09264333,33.8881073 L2.09264333,36.8867187 L0.553045454,36.8867187 C0.247718276,36.8867187 0,37.1357575 0,37.4433594 C0,37.7509613 0.247718276,38 0.553045454,38 L33.8947732,38 C34.2003884,38 34.4478187,37.7509613 34.4478187,37.4433594 C34.4478187,37.1357575 34.2003884,36.8867187 33.8947732,36.8867187 L27.8893333,36.8867187 L27.8893333,16.7566224 L29.0567777,16.7566224 L29.0567777,17.6817474 C29.0567777,19.3310852 30.3898477,20.672821 32.0285329,20.672821 Z M2.64568878,32.7661286 C2.58635165,32.7661286 2.5293188,32.7754059 2.47574256,32.7928009 C1.91203948,32.3703919 1.36993968,31.8769531 1.19336841,31.5284729 C1.08304735,31.3104554 1.07728646,31.0098114 1.17954228,30.780487 C1.2550099,30.6108856 1.37310818,30.5036164 1.5312446,30.4618683 C1.57041865,30.4514313 1.61132094,30.4465026 1.65279935,30.4465026 C1.84262069,30.4465026 2.04396382,30.5488434 2.12461628,30.6998901 C2.22773626,30.8935547 2.42735108,31.0138703 2.64540075,31.0138703 C2.86373853,31.0138703 3.06306525,30.8935547 3.1658972,30.70047 C3.26469648,30.5155029 3.54237131,30.4041748 3.75955691,30.4615784 C3.91769332,30.5036164 4.03607963,30.6108856 4.11154726,30.780487 C4.21351505,31.0098114 4.20775416,31.3104554 4.0974331,31.528183 C3.92086183,31.8766632 3.37905013,32.3701019 2.81505895,32.7928009 C2.76177073,32.7756958 2.70473796,32.7661286 2.64568878,32.7661286 L2.64568878,32.7661286 Z M16.6708639,36.8867188 L14.3814862,36.8867188 L14.3814862,30.0957031 L16.6708639,30.0957031 L16.6708639,36.8867188 Z M12.6339201,28.9824219 L12.6339201,28.4628906 L21.8138986,28.4628906 L21.8138986,28.9824219 L12.6339201,28.9824219 Z M20.0660445,36.8867188 L17.7769548,36.8867188 L17.7769548,30.0957031 L20.0660445,30.0957031 L20.0660445,36.8867188 Z M26.7832424,36.8867188 L21.1721354,36.8867188 L21.1721354,30.0957031 L21.9982471,30.0957031 C22.5063576,30.0957031 22.9199895,29.6796722 22.9199895,29.1679688 L22.9199895,28.2773438 C22.9199895,27.7656403 22.5063576,27.3496094 21.9982471,27.3496094 L12.4495716,27.3496094 C11.9414611,27.3496094 11.5278292,27.7656403 11.5278292,28.2773438 L11.5278292,29.1679688 C11.5278292,29.6796722 11.9414611,30.0957031 12.4495716,30.0957031 L13.2753952,30.0957031 L13.2753952,36.8867188 L7.66457627,36.8867188 L7.66457627,3.98722838 L11.6934548,3.98722838 C11.99907,3.98722838 12.2465003,3.73789976 12.2465003,3.43058775 C12.2465003,3.12298584 11.99907,2.87394713 11.6934548,2.87394713 L10.756158,2.87394713 L10.756158,1.11328125 L23.6916607,1.11328125 L23.6916607,2.87394713 L13.9056366,2.87394713 C13.6003094,2.87394713 13.3525912,3.12298584 13.3525912,3.43058775 C13.3525912,3.73789976 13.6003094,3.98722838 13.9056366,3.98722838 L26.7832424,3.98722838 L26.7832424,36.8867188 Z M27.8893333,15.6433411 L27.8893333,7.64974972 L29.0950876,7.64974972 C29.0700277,7.80630497 29.0567777,7.96691895 29.0567777,8.13072203 L29.0567777,9.30198668 C29.0567777,9.60958859 29.304496,9.8586273 29.6098232,9.8586273 C29.9151503,9.8586273 30.1628686,9.60958859 30.1628686,9.30198668 L30.1628686,8.13072203 C30.1628686,7.09542843 30.999926,6.25292969 32.0285329,6.25292969 C33.0571398,6.25292969 33.8941972,7.09542843 33.8941972,8.13072203 L33.8941972,17.6817474 C33.8941972,18.717041 33.0571398,19.5595398 32.0285329,19.5595398 C30.9996379,19.5595398 30.1628686,18.717041 30.1628686,17.6817474 L30.1628686,16.20578 C30.1628686,16.2040405 30.1628686,16.2020111 30.1628686,16.1999817 C30.1628686,16.1982422 30.1628686,16.1962127 30.1628686,16.1941833 L30.1628686,11.5282593 C30.1628686,11.2209473 29.9151503,10.9716187 29.6098232,10.9716187 C29.304496,10.9716187 29.0567777,11.2209473 29.0567777,11.5282593 L29.0567777,15.6433411 L27.8893333,15.6433411 Z" id="Shape" fill="#000000"></path>
                    <path d="M10.8957576,7.77929984 L10.8957576,11.7834655 L10.6721636,11.7834655 C10.3015339,11.7834655 10,12.133061 10,12.5627653 L10,14.2207002 C10,14.6504045 10.3015339,15 10.6721636,15 L15.3278364,15 C15.6984661,15 16,14.6504045 16,14.2207002 L16,12.5627653 C16,12.133061 15.6984661,11.7834655 15.3278364,11.7834655 L15.1045189,11.7834655 L15.1045189,7.77929984 C15.1045189,7.34959547 14.802985,7 14.4323552,7 L11.5679212,7 C11.1972914,7 10.8957576,7.34959547 10.8957576,7.77929984 Z M14.938689,13.0139389 L14.938689,13.7695266 L11.061311,13.7695266 L11.061311,13.0139389 L14.938689,13.0139389 Z M11.9570686,8.23047344 L14.0432079,8.23047344 L14.0432079,11.7834655 L11.9570686,11.7834655 L11.9570686,8.23047344 Z" id="Shape" fill="#000000"></path>
                    <path d="M18.6721636,15 L23.3278364,15 C23.6984661,15 24,14.6504045 24,14.2207002 L24,12.5627653 C24,12.133061 23.6984661,11.7834655 23.3278364,11.7834655 L23.1045189,11.7834655 L23.1045189,7.77929984 C23.1045189,7.34959547 22.802985,7 22.4323552,7 L19.5679212,7 C19.1972914,7 18.8957576,7.34959547 18.8957576,7.77929984 L18.8957576,11.7834655 L18.6721636,11.7834655 C18.3015339,11.7834655 18,12.133061 18,12.5627653 L18,14.2207002 C18,14.6504045 18.3015339,15 18.6721636,15 L18.6721636,15 Z M19.9570686,8.23047344 L22.0432079,8.23047344 L22.0432079,11.7834655 L19.9570686,11.7834655 L19.9570686,8.23047344 Z M19.061311,13.0139389 L22.938689,13.0139389 L22.938689,13.7695266 L19.061311,13.7695266 L19.061311,13.0139389 Z" id="Shape" fill="#000000"></path>
                    <path d="M15.3278364,22.7836571 L15.1045189,22.7836571 L15.1045189,18.7793311 C15.1045189,18.3496094 14.802985,18 14.4323552,18 L11.5679212,18 C11.1972914,18 10.8957576,18.3496094 10.8957576,18.7793311 L10.8957576,22.7836571 L10.6721636,22.7836571 C10.3015339,22.7836571 10,23.1332665 10,23.5629882 L10,25.2206689 C10,25.6503905 10.3015339,26 10.6721636,26 L15.3278364,26 C15.6984661,26 16,25.6503905 16,25.2206689 L16,23.5629882 C16,23.1332665 15.6987425,22.7836571 15.3278364,22.7836571 L15.3278364,22.7836571 Z M11.9570686,19.2305227 L14.0432079,19.2305227 L14.0432079,22.7836571 L11.9570686,22.7836571 L11.9570686,19.2305227 Z M14.938689,24.7694773 L11.061311,24.7694773 L11.061311,24.0141799 L14.938689,24.0141799 L14.938689,24.7694773 Z" id="Shape" fill="#000000"></path>
                    <path d="M18.6721636,26 L23.3278364,26 C23.6984661,26 24,25.6503905 24,25.2206689 L24,23.5629882 C24,23.1332665 23.6984661,22.7836571 23.3278364,22.7836571 L23.1045189,22.7836571 L23.1045189,18.7793311 C23.1045189,18.3496094 22.802985,18 22.4323552,18 L19.5679212,18 C19.1972914,18 18.8957576,18.3496094 18.8957576,18.7793311 L18.8957576,22.7836571 L18.6721636,22.7836571 C18.3015339,22.7836571 18,23.1332665 18,23.5629882 L18,25.2206689 C18,25.6503905 18.3015339,26 18.6721636,26 L18.6721636,26 Z M19.9570686,19.2305227 L22.0432079,19.2305227 L22.0432079,22.7836571 L19.9570686,22.7836571 L19.9570686,19.2305227 Z M19.061311,24.0141799 L22.938689,24.0141799 L22.938689,24.7694773 L19.061311,24.7694773 L19.061311,24.0141799 Z" id="Shape" fill="#000000"></path>
                </g>
            </g>
        </g>
    </g>
</svg>