<?xml version="1.0" encoding="UTF-8"?>
<svg width="65px" height="65px" viewBox="0 0 65 65" version="1.1" xmlns="http://www.w3.org/2000/svg" xmlns:xlink="http://www.w3.org/1999/xlink">
    <!-- Generator: Sketch 59.1 (86144) - https://sketch.com -->
    <title>Group 4 Copy</title>
    <desc>Created with Sketch.</desc>
    <g id="Page-1" stroke="none" stroke-width="1" fill="none" fill-rule="evenodd">
        <g id="Homescreen" transform="translate(-282.000000, -610.000000)">
            <g id="Group-4-Copy" transform="translate(282.000000, 610.000000)">
                <circle id="Oval-Copy-9" fill="#FFFFFF" cx="32.5" cy="32.5" r="32.5"></circle>
                <g id="atom" transform="translate(17.000000, 16.000000)" fill-rule="nonzero">
                    <path d="M30.4550781,3.65502931 C30.1950684,3.86987306 29.8649903,4 29.5,4 C28.670166,4 28,3.329834 28,2.5 C28,2.1345215 28.1301269,1.80493163 28.3449707,1.54492188 C28.6149902,1.20996094 29.0351562,1 29.5,1 C30.3300781,1 31,1.66992188 31,2.5 C31,2.96484375 30.7900391,3.3845215 30.4550781,3.65502931 L30.4550781,3.65502931 Z" id="Path" fill="#FF6977"></path>
                    <path d="M18.3200684,5.57495119 C18.5949707,5.2248535 19.0200195,5 19.5,5 C20.3300781,5 21,5.66992188 21,6.5 C21,6.86987306 20.8649903,7.20996094 20.6450195,7.46997069 C20.3701172,7.79492188 19.9599609,8 19.5,8 C18.670166,8 18,7.329834 18,6.5 C18,6.14990231 18.1201172,5.829834 18.3200684,5.57495119 Z" id="Path" fill="#FF6977"></path>
                    <path d="M28.6149903,18.2900391 C28.8601074,18.1098633 29.170166,18 29.5,18 C30.3300781,18 31,18.6699219 31,19.5 C31,20.1948242 30.5351562,20.7749023 29.8950195,20.9448242 C29.7700195,20.9799804 29.6345215,21 29.5,21 C28.670166,21 28,20.329834 28,19.5 C28,19 28.2399903,18.5598144 28.6149902,18.2900391 L28.6149903,18.2900391 Z" id="Path" fill="#FF6977"></path>
                    <path d="M18,27.5 C18,27.7099609 17.9550781,27.9099121 17.8801269,28.0898438 C17.6501465,28.625 17.1201172,29 16.5,29 C15.8801269,29 15.3500976,28.625 15.1201172,28.0898438 C15.045166,27.9099121 15,27.7099609 15,27.5 C15,27.0949707 15.1601562,26.7299804 15.4150391,26.4648438 C15.6901855,26.1799316 16.0751953,26 16.5,26 C16.9250488,26 17.3100586,26.1799316 17.5849609,26.4648438 C17.8400879,26.7299804 18,27.0949707 18,27.5 L18,27.5 Z" id="Path" fill="#FF6977"></path>
                    <path d="M3.18505856,19.1650391 C3.670166,19.4150391 4,19.9150391 4,20.5 C4,21.329834 3.33007812,22 2.5,22 C2.30004881,22 2.10498044,21.9599609 1.93017575,21.8850097 C1.3845215,21.6650391 1,21.1298828 1,20.5 C1,19.6699219 1.670166,19 2.5,19 C2.74511719,19 2.97998044,19.0598144 3.18505856,19.1650391 Z" id="Path" fill="#FF6977"></path>
                    <path d="M22,14.5 L22,17.5 L20.6450195,17.8398438 C20.625,17.8903809 20.6101074,17.9399414 20.5849609,17.9904785 L21.3051758,19.1804199 L19.1801758,21.3054199 L17.9899903,20.5849609 C17.9396973,20.6098633 17.8901367,20.625 17.8395996,20.6450196 L17.5,22 L14.5,22 L14.1601562,20.6450196 C14.1096191,20.625 14.0600586,20.6098633 14.0095215,20.5849609 L12.8195801,21.3054199 L10.6945801,19.1804199 L11.4150391,17.9904785 C11.3901367,17.9399414 11.375,17.8903809 11.3549804,17.8398438 L10,17.5 L10,14.5 L11.3549804,14.1599121 C11.375,14.109375 11.3901367,14.0598144 11.4150391,14.0095215 L10.6945801,12.8193359 L12.8195801,10.6943359 L14.0095215,11.4143066 C14.0600586,11.3894043 14.1096191,11.3745117 14.1601562,11.3544922 L14.5,10 L17.5,10 L17.8400879,11.3549804 C17.890625,11.375 17.9401855,11.3898926 17.9904785,11.4150391 L19.1806641,10.6948242 L21.3056641,12.8198242 L20.5856934,14.0100098 C20.6105957,14.0603027 20.6254882,14.1098633 20.6455078,14.1604004 L22,14.5 Z" id="Path" fill="#DFF6FC"></path>
                    <path d="M16,13 C17.6550292,13 19,14.3449707 19,16 C19,17.6550293 17.6550292,19 16,19 C14.3449707,19 13,17.6550293 13,16 C13,14.3449707 14.3449707,13 16,13 L16,13 Z M17,16 C17,15.4499512 16.5500488,15 16,15 C15.4501953,15 15,15.4499512 15,16 C15,16.5498047 15.4501953,17 16,17 C16.5500488,17 17,16.5498047 17,16 Z" id="Shape" fill="#B4DD7F"></path>
                    <g id="Group" fill="#1E1713">
                        <path d="M15.9735916,12.390121 C13.9859155,12.390121 12.3679578,14.0110887 12.3679578,16.0030242 C12.3679578,17.9947077 13.9859155,19.6159274 15.9735916,19.6159274 C17.9615191,19.6159274 19.5792254,17.9947077 19.5792254,16.0030242 C19.5792254,14.0110887 17.9615191,12.390121 15.9735916,12.390121 L15.9735916,12.390121 Z M15.9735916,18.5836694 C14.5535714,18.5836694 13.3981388,17.4259072 13.3981388,16.0030242 C13.3981388,14.5798891 14.5535714,13.422379 15.9735916,13.422379 C17.3938632,13.422379 18.5490443,14.5798891 18.5490443,16.0030242 C18.5490443,17.4259072 17.3938632,18.5836694 15.9735916,18.5836694 L15.9735916,18.5836694 Z" id="Shape"></path>
                        <path d="M15.9735916,14.4546371 C15.1217304,14.4546371 14.4283199,15.1491935 14.4283199,16.0030242 C14.4283199,16.8566028 15.1217304,17.5514113 15.9735916,17.5514113 C16.8257042,17.5514113 17.5188632,16.8566028 17.5188632,16.0030242 C17.5188632,15.1491935 16.8257042,14.4546371 15.9735916,14.4546371 L15.9735916,14.4546371 Z M15.9735916,16.5191532 C15.6893863,16.5191532 15.458501,16.2878025 15.458501,16.0030242 C15.458501,15.7179939 15.6893863,15.4868952 15.9735916,15.4868952 C16.2580483,15.4868952 16.4886821,15.7179939 16.4886821,16.0030242 C16.4886821,16.2878025 16.2580483,16.5191532 15.9735916,16.5191532 L15.9735916,16.5191532 Z" id="Shape"></path>
                        <path d="M21.4258048,18.265625 L22.6697686,17.9543851 L22.6697686,14.0514113 L21.4258048,13.7401714 L22.0852616,12.6378528 L19.331489,9.87852826 L18.2313883,10.5393145 L17.9212777,9.29334677 L14.0261569,9.29334677 L13.7155432,10.5398186 L12.6151912,9.87903226 L9.86166999,12.6383568 L10.5208753,13.7406754 L9.2774145,14.0514113 L9.2774145,17.9543851 L10.5213783,18.265625 L9.86217304,19.3681955 L12.6156942,22.1272681 L13.7160463,21.4667339 L14.0261569,22.7127016 L17.9212777,22.7127016 L18.2318913,21.4662298 L19.331992,22.1267641 L22.0857646,19.3676915 L21.4258048,18.265625 Z M19.1717807,20.827621 L18.0598592,20.1587702 L17.431841,20.4148186 L17.1167002,21.6804435 L14.8307344,21.6804435 L14.5802314,20.6743952 L14.4763582,20.3986895 L13.8875754,20.1587702 L12.7754024,20.827621 L11.1587022,19.2076613 L11.8262072,18.0932459 L11.5671529,17.4637097 L10.3075956,17.1481855 L10.3075956,14.8576109 L11.3116197,14.6068548 L11.5867706,14.5025201 L11.8262072,13.9125504 L11.1587022,12.7983871 L12.7754024,11.1781754 L13.8875754,11.8470262 L14.515342,11.5909778 L14.8307344,10.3256048 L17.1167002,10.3256048 L17.3669517,11.3314012 L17.4710764,11.6071068 L18.0598592,11.8470262 L19.1717807,11.1781754 L20.7887324,12.7983871 L20.1212273,13.9125504 L20.3767605,14.5418347 L21.6395875,14.8576109 L21.6395875,17.1481855 L20.6358149,17.3991935 L20.360664,17.5032762 L20.1212273,18.0932459 L20.7887324,19.2076613 L19.1717807,20.827621 Z" id="Shape"></path>
                        <path d="M3.10714282,26.3029234 L2.07796784,26.3482863 C2.09607649,26.7580645 2.15643866,27.141633 2.25729378,27.4879032 L3.24622738,27.1983367 C3.1685111,26.9319556 3.12173038,26.6305444 3.10714282,26.3029234 Z" id="Path"></path>
                        <path d="M3.61192151,27.9616935 L2.78219319,28.5733367 C2.87349093,28.6965726 2.97384306,28.8142641 3.08098588,28.921623 C3.26333,29.1043347 3.47132794,29.2643649 3.69969822,29.3974294 L4.21780681,28.5050403 C4.06639839,28.4163306 3.92831994,28.3109879 3.8093561,28.1917843 C3.73667,28.1197077 3.67077466,28.0420867 3.61192151,27.9616935 Z" id="Path"></path>
                        <path d="M4.81212272,29.8170363 C5.15995976,29.890877 5.53998996,29.9281754 5.94240444,29.9281754 L5.94240444,28.8959174 C5.61116703,28.8959174 5.30256541,28.8659274 5.0254024,28.8069556 L4.81212272,29.8170363 Z" id="Path"></path>
                        <path d="M29.8760061,6.21774194 C29.8923541,5.81602826 29.873994,5.43523187 29.8209256,5.08618955 L28.8025654,5.24269155 C28.845825,5.52595768 28.860161,5.83971774 28.846831,6.17590723 L29.8760061,6.21774194 Z" id="Path"></path>
                        <path d="M29.7550301,7.31653226 L28.7396881,7.14112903 C28.4934607,8.56854839 27.8407948,10.2946068 26.8523642,12.1330645 L27.7590543,12.6227319 C28.8000503,10.687248 29.4901911,8.85257058 29.7550301,7.31653226 L29.7550301,7.31653226 Z" id="Path"></path>
                        <path d="M31.9413984,19.6159274 C31.9413984,18.4773186 31.0173541,17.5514113 29.8810362,17.5514113 C29.6297787,17.5514113 29.3918511,17.6028226 29.1687626,17.6859879 C28.84834,17.1270161 28.5072937,16.5660283 28.1410966,16.0035283 C31.1348089,11.4027218 32.792002,6.61189516 31.4690644,3.36643148 C31.7595573,3.01083671 31.9413984,2.5625 31.9413984,2.06754032 C31.9413984,0.928931484 31.0173541,0.00302419355 29.8810362,0.00302419355 C29.3870725,0.00302419355 28.9396378,0.185231871 28.584004,0.476310452 C25.346328,-0.850302452 20.5646378,0.809727806 15.9725855,3.80997987 C10.7970322,0.432963742 4.83903421,-1.59803426 1.62424544,1.624496 C-0.436619718,3.68901213 -0.537977883,7.08946574 1.32972839,11.4574093 C1.95850102,12.9279234 2.80130781,14.4664819 3.80357144,16.0055444 C3.34205231,16.7142137 2.91926561,17.421875 2.53093563,18.125252 C2.38103623,18.0902218 2.22635815,18.0675403 2.0661469,18.0675403 C0.929828958,18.0675403 0.00578471147,18.9934476 0.00578471147,20.1320565 C0.00578471147,20.8132561 0.340794785,21.4130545 0.849597553,21.7893145 C-0.488682109,25.5599799 -0.226861199,28.5267137 1.62424544,30.3813004 C2.69668005,31.4564012 4.16172034,31.9884072 5.92882292,31.9884072 C8.2806841,31.9879032 11.1735412,31.0342742 14.3840543,29.171371 C14.7620725,29.6353326 15.3302314,29.9385081 15.9735916,29.9385081 C16.6169517,29.9385081 17.1851107,29.6353326 17.5631288,29.171371 C20.7743964,31.0347782 23.665996,31.9884072 26.0183601,31.9884072 C27.7857143,31.9884072 29.2507545,31.4558972 30.3231891,30.3813004 C32.2454728,28.4556452 32.4539738,25.3465222 30.944165,21.375252 C31.5392354,21.0131048 31.9413984,20.3631552 31.9413984,19.6159274 Z M30.9112173,19.6159274 C30.9112173,20.1852319 30.4491951,20.6481855 29.8810362,20.6481855 C29.3128773,20.6481855 28.8508551,20.1852319 28.8508551,19.6159274 C28.8508551,19.046623 29.3128773,18.5836694 29.8810362,18.5836694 C30.4491951,18.5836694 30.9112173,19.046623 30.9112173,19.6159274 Z M29.8810362,1.03528226 C30.4491951,1.03528226 30.9112173,1.49823587 30.9112173,2.06754032 C30.9112173,2.63684477 30.4491951,3.09979839 29.8810362,3.09979839 C29.3128773,3.09979839 28.8508551,2.63684477 28.8508551,2.06754032 C28.8508551,1.49823587 29.3128773,1.03528226 29.8810362,1.03528226 Z M27.9592556,1.34072581 C27.8732394,1.56779232 27.8206741,1.81098787 27.8206741,2.06754032 C27.8206741,3.20614916 28.7447183,4.13205645 29.8810362,4.13205645 C30.1370724,4.13205645 30.3802817,4.0793851 30.6063883,3.99319555 C31.583501,6.80292335 30.0990945,10.985131 27.5090543,15.0688004 C26.111167,13.0559476 24.4622737,11.0708165 22.6795775,9.28402219 C22.1227364,8.72555445 21.5248994,8.16759071 20.9081992,7.61643148 C21.0422535,7.34223794 21.124497,7.03830645 21.124497,6.71270161 C21.124497,5.57409277 20.2004527,4.64818548 19.0641348,4.64818548 C18.5892857,4.64818548 18.1571931,4.81628026 17.8083501,5.08744961 C17.512827,4.86895161 17.2125251,4.65372981 16.9084507,4.44228832 C20.9834004,1.84853832 25.1551811,0.361643161 27.9592556,1.34072581 L27.9592556,1.34072581 Z M17.1038732,26.1509577 C16.778672,25.9362399 16.3913481,25.8094758 15.9735916,25.8094758 C15.555835,25.8094758 15.1685111,25.9362399 14.8435613,26.1509577 C13.1514084,24.9077621 11.4811368,23.4800907 9.99597586,21.9926915 C8.13078471,20.1237399 6.44039237,18.0720766 5.04200203,16.0100806 C6.45070423,13.9311996 8.14285714,11.8717238 9.99597586,10.0138609 C11.7899899,8.21597781 13.8541247,6.49848787 15.9763581,5.05468748 C16.3838028,5.33089716 16.7829477,5.61265123 17.1712776,5.89919355 C17.0641348,6.14894155 17.0037727,6.4236391 17.0037727,6.71270161 C17.0037727,7.85131045 17.9278169,8.77721774 19.0641348,8.77721774 C19.5020121,8.77721774 19.9064386,8.63734877 20.2406941,8.40347781 C20.835513,8.93548387 21.4134809,9.47505039 21.9512073,10.0138609 C23.7942656,11.8603831 25.4889336,13.922379 26.8991449,16.0015121 C25.459004,18.1272681 23.7454728,20.1950605 21.9512073,21.9926915 C20.4662978,23.4800907 18.7957746,24.9077621 17.1038732,26.1509577 Z M19.0641348,7.74495968 C18.4959759,7.74495968 18.0339537,7.28200606 18.0339537,6.71270161 C18.0339537,6.14339716 18.4959759,5.68044355 19.0641348,5.68044355 C19.6322937,5.68044355 20.0943159,6.14339716 20.0943159,6.71270161 C20.0943159,7.28200606 19.6322937,7.74495968 19.0641348,7.74495968 Z M2.27640847,11.0501512 C1.09884304,8.29712703 0.156690157,4.55418348 2.35261566,2.35433471 C5.05935614,-0.358870968 10.4278169,1.52444555 15.0392354,4.44002013 C13.0020121,5.85937497 11.0261569,7.52192542 9.26810862,9.28351813 C7.47510059,11.0801412 5.8249497,13.063004 4.42907441,15.0748488 C3.56312879,13.7101814 2.83324948,12.3518145 2.27640847,11.0501512 Z M2.0661469,19.0997984 C2.6343058,19.0997984 3.09632798,19.562752 3.09632798,20.1320565 C3.09632798,20.7013609 2.6343058,21.1643145 2.0661469,21.1643145 C1.49798793,21.1643145 1.03596581,20.7013609 1.03596581,20.1320565 C1.03596581,19.562752 1.49798793,19.0997984 2.0661469,19.0997984 Z M2.35261566,29.6514617 C0.432847066,27.7278226 0.94793761,24.6015625 1.80457748,22.1696068 C1.8910966,22.1809476 1.97660967,22.1965726 2.0661469,22.1965726 C3.20246477,22.1965726 4.12650907,21.2706653 4.12650907,20.1320565 C4.12650907,19.5249496 3.85915493,18.984123 3.44215295,18.6063508 C3.74849095,18.0524194 4.0772133,17.4962197 4.4305835,16.9382561 C5.81815894,18.937248 7.4637827,20.9148186 9.26760563,22.7225303 C10.7655936,24.2232863 12.4484407,25.6628025 14.1549296,26.9236391 C14.0060362,27.2091734 13.9132294,27.5297379 13.9132294,27.8739919 C13.9132294,27.9972278 13.9288229,28.1169355 13.9499497,28.234123 C8.72484906,31.2875504 4.50829978,31.811996 2.35261566,29.6514617 L2.35261566,29.6514617 Z M15.9735916,28.90625 C15.4054326,28.90625 14.9434105,28.4432964 14.9434105,27.8739919 C14.9434105,27.3046875 15.4054326,26.8417339 15.9735916,26.8417339 C16.5417505,26.8417339 17.0037727,27.3046875 17.0037727,27.8739919 C17.0037727,28.4432964 16.5417505,28.90625 15.9735916,28.90625 Z M29.5948189,29.6514617 C27.4376258,31.813004 23.2215795,31.2880545 17.9974849,28.234123 C18.0186116,28.1169355 18.0339537,27.9972278 18.0339537,27.8739919 C18.0339537,27.5297379 17.9413984,27.2091734 17.792002,26.9236391 C19.498994,25.6628025 21.1818411,24.2232863 22.6790744,22.7225303 C24.4371227,20.9604335 26.096831,18.9805948 27.51333,16.9387601 C27.7980382,17.3876008 28.0684105,17.8351814 28.3224346,18.28125 C28.013833,18.6418851 27.8206741,19.1043347 27.8206741,19.6159274 C27.8206741,20.7545363 28.7447183,21.6804435 29.8810362,21.6804435 C29.9074447,21.6804435 29.9315895,21.6736391 29.9572435,21.672631 C30.9544769,24.266129 31.6199698,27.6224799 29.5948189,29.6514617 L29.5948189,29.6514617 Z" id="Shape"></path>
                        <path d="M23.2152918,29.4682459 C23.5198692,29.5594758 23.8163984,29.6365928 24.1048793,29.6998488 L24.3264587,28.6920363 C24.0621228,28.6335685 23.7897384,28.5625 23.5095573,28.4793347 L23.2152918,29.4682459 Z" id="Path"></path>
                        <path d="M21.2251006,28.733871 C21.5588532,28.8782762 21.8863179,29.0103326 22.2057344,29.1295363 L22.5648894,28.1617943 C22.2613179,28.0488911 21.9512073,27.9238911 21.6340543,27.7862903 L21.2251006,28.733871 Z" id="Path"></path>
                        <path d="M19.333501,27.8079637 C19.6493964,27.9790826 19.9615191,28.140625 20.2686117,28.2908266 L20.7203219,27.3634072 C20.4260564,27.2195061 20.1272635,27.0650201 19.8244467,26.9009577 L19.333501,27.8079637 Z" id="Path"></path>
                        <path d="M3.65015089,11.5824093 C3.81765595,11.9306955 3.99723338,12.2817541 4.18838027,12.6363407 L5.09507039,12.1464214 C4.91222336,11.8061996 4.73943662,11.46875 4.57771628,11.1338206 L3.65015089,11.5824093 Z" id="Path"></path>
                        <path d="M3.08148893,3.08417342 C1.31614687,4.85307458 2.15694165,8.10710684 3.17303823,10.5257057 L4.12298791,10.1257561 C3.53370218,8.72404232 2.32469821,5.30317542 3.81036221,3.81401213 C4.23314891,3.38986897 4.86820926,3.15549394 5.69617706,3.11668348 L5.64864187,2.08543348 C4.5550805,2.13608871 3.69139837,2.47202619 3.08148893,3.08417342 Z" id="Path"></path>
                    </g>
                </g>
            </g>
        </g>
    </g>
</svg>