<?xml version="1.0" encoding="UTF-8"?>
<svg width="65px" height="65px" viewBox="0 0 65 65" version="1.1" xmlns="http://www.w3.org/2000/svg" xmlns:xlink="http://www.w3.org/1999/xlink">
    <!-- Generator: Sketch 59.1 (86144) - https://sketch.com -->
    <title>Group 3</title>
    <desc>Created with Sketch.</desc>
    <g id="Page-1" stroke="none" stroke-width="1" fill="none" fill-rule="evenodd">
        <g id="Homescreen" transform="translate(-155.000000, -495.000000)">
            <g id="Group-3" transform="translate(155.000000, 495.000000)">
                <circle id="Oval-Copy-6" fill="#FFFFFF" cx="32.5" cy="32.5" r="32.5"></circle>
                <g id="garment" transform="translate(16.000000, 14.000000)" fill-rule="nonzero">
                    <g id="Group" transform="translate(1.000000, 30.000000)">
                        <polygon id="XMLID_1056_" fill="#B4DD7F" points="5.5204372 2.10144928 23.4572174 2.10144928 23.4572174 5 5.5204372 5"></polygon>
                        <polygon id="XMLID_1055_" fill="#DFF6FC" points="0.0566690821 0 3.69918116 0 3.69918116 2.89855072 0.0566690821 2.89855072"></polygon>
                        <polygon id="XMLID_1054_" fill="#DFF6FC" transform="translate(27.121795, 1.449275) rotate(-180.000000) translate(-27.121795, -1.449275) " points="25.3005386 0 28.9430507 0 28.9430507 2.89855072 25.3005386 2.89855072"></polygon>
                    </g>
                    <path d="M28,6 C26.5138152,8.31599625 25.7248424,11.0007804 25.7248424,13.7419567 L25.7248424,28.9327847 C25.7248424,30.0551704 25.322981,31.141524 24.5902419,32 L15.4999645,32 L6.40975813,32 C5.67701895,31.141454 5.27515764,30.0551704 5.27515764,28.9327847 L5.27515764,13.7419567 C5.27515764,11.0007804 4.48618482,8.31599625 3,6 L28,6 Z" id="XMLID_1026_" fill="#E5F0FF"></path>
                    <path d="M26.0043943,27.3999812 L26.0043943,30.294114 C26.0043943,30.6839748 26.3150238,31 26.6982284,31 L30.3061659,31 C30.6893705,31 31,30.6839748 31,30.294114 L31,13.0678121 C31,9.21699198 28.4102641,5.86615093 24.7320413,4.9576756 L20.8546186,4 L11.1454508,4 L7.26795874,4.9576756 C3.58973588,5.86615093 1,9.21699198 1,13.0678121 L1,30.294114 C1,30.6839748 1.31062954,31 1.69383413,31 L5.30177159,31 C5.68497618,31 5.99560572,30.6839748 5.99560572,30.294114 L5.99560572,27.3999812 L26.0043943,27.3999812 Z" id="XMLID_1025_" fill="#DFF6FC"></path>
                    <polygon id="XMLID_1170_" fill="#FF6977" points="6 14 26 14 26 23 6 23"></polygon>
                    <path d="M15.4999639,1 L16.1552717,1 C18.0861731,1 19.8951836,1.89662205 21,3.40123742 L19.7585618,4.2274003 C17.0906107,6.00294385 15.5017692,8.90322701 15.5017692,11.998079 L15.5017692,12 C15.5017692,8.9041189 13.9119167,6.00294385 11.2424491,4.22760612 L10,3.40123742 C11.1047442,1.89662205 12.9138269,1 14.8447283,1 L15.4999639,1 Z" id="XMLID_1095_" fill="#B4DD7F"></path>
                    <path d="M21,3.35543517 C19.895263,1.87951949 18.0861922,1 16.1553035,1 L15.5,1 L14.8446965,1 C12.9138078,1 11.1048092,1.87951949 10,3.35543517 L11.2425132,4.16604135 C11.6200979,4.41241987 11.9752977,4.68154517 12.3082569,4.96951394 L12.3117951,4.97119639 L12.368913,4.89562057 C12.93316,4.14188132 13.8586724,3.6919259 14.8447687,3.6919259 L15.5000722,3.6919259 L16.1553757,3.6919259 C17.141472,3.6919259 18.0669844,4.14188132 18.6311592,4.89562057 C18.6311592,4.89562057 18.6397521,4.93505729 18.6580212,5 C19.0009453,4.70038865 19.367843,4.42096674 19.7586422,4.16583946 L21,3.35543517 Z" id="XMLID_1127_" fill="#B4DD7F"></path>
                    <path d="M31.2925578,23.2512188 C30.9018765,23.2512188 30.5851863,23.5660078 30.5851863,23.9543438 L30.5851863,29.7421875 L26.9068547,29.7421875 L26.9068547,14.1356953 C26.9068547,11.8029375 27.4969439,9.52178906 28.6194717,7.48617188 C29.8528446,8.84594531 30.5851863,10.6408828 30.5851863,12.5832656 L30.5851863,17.6262891 C30.5851863,18.014625 30.9018765,18.3294141 31.2925578,18.3294141 C31.6832391,18.3294141 32,18.014625 32,17.6262891 L32,12.5832656 C32,8.40923438 29.1499296,4.80635156 25.0691743,3.821625 L22.0827227,3.10099219 C22.0721121,2.9829375 22.0319334,2.86600781 21.9588619,2.761875 C20.7452247,1.03246875 18.7541862,0 16.6328499,0 L15.3490414,0 C13.2277051,0 11.2366666,1.03246875 10.0230294,2.76173438 C9.94903831,2.86720313 9.90885961,2.98575 9.89888567,3.10528125 L6.93068423,3.82155469 C2.84999967,4.80628125 0,8.40916406 0,12.5831953 L0,29.7421875 C0,30.2613047 0.285212178,30.7145391 0.707371474,30.9581719 L0.707371474,33.2578125 C0.707371474,33.6461484 1.02406168,33.9609375 1.41474295,33.9609375 L5.09307461,33.9609375 C5.48375588,33.9609375 5.80044609,33.6461484 5.80044609,33.2578125 L5.80044609,32.0867578 C5.92635821,32.31 6.06769103,32.5252969 6.22486897,32.7302578 L6.22486897,35.296875 C6.22486897,35.6852109 6.54155918,36 6.93224044,36 L25.0454066,36 C25.4360879,36 25.7527781,35.6852109 25.7527781,35.296875 L25.7527781,32.7595781 C25.9190104,32.5458984 26.0676999,32.3206875 26.1995539,32.0868281 L26.1995539,33.2578125 C26.1995539,33.6461484 26.5162441,33.9609375 26.9069254,33.9609375 L30.5852571,33.9609375 C30.9759383,33.9609375 31.2926285,33.6461484 31.2926285,33.2578125 L31.2926285,30.9581719 C31.7147878,30.7145391 32,30.2613047 32,29.7421875 L32,23.9543437 C32,23.5660078 31.6832391,23.2512187 31.2925578,23.2512187 L31.2925578,23.2512188 Z M15.2865098,15.1875 L15.2891978,22.78125 L6.50774682,22.78125 L6.50774682,15.1875 L15.2865098,15.1875 Z M15.3490414,4.21875 L16.6328499,4.21875 C17.2026376,4.21875 17.7446964,4.43453906 18.1556792,4.81035937 C17.215724,5.79867187 16.482392,6.95735156 15.992325,8.21664844 C15.5018336,6.95685937 14.7677943,5.79789844 13.8270609,4.80944531 C14.2380438,4.4341875 14.7796781,4.21875 15.3490414,4.21875 L15.3490414,4.21875 Z M25.4921117,22.78125 L16.70387,22.78125 L16.701182,15.1875 L25.4921117,15.1875 L25.4921117,22.78125 L25.4921117,22.78125 Z M6.50774682,29.4019453 L6.50774682,24.1875 L15.2896222,24.1875 L15.2923102,31.78125 L7.27750846,31.78125 C6.77916526,31.0902188 6.50774682,30.2567344 6.50774682,29.4019453 Z M16.7070532,31.78125 L16.7043651,24.1875 L25.4921117,24.1875 L25.4921117,29.4019453 C25.4921117,30.2567344 25.2206933,31.0902188 24.7223501,31.78125 L16.7070532,31.78125 Z M27.5485113,6.51058594 C26.2609538,8.72571094 25.556341,11.2201875 25.4967804,13.78125 L16.7007576,13.78125 L16.7001209,11.9763281 L16.7001209,11.9762578 C16.7001209,11.9759062 16.7001209,11.9754844 16.7001209,11.9751328 C16.7001209,11.9749922 16.7001209,11.9748516 16.7001209,11.9747109 C16.7001209,9.03508594 18.1462712,6.27328125 20.5685233,4.58676563 L20.999454,4.28667188 L24.7354364,5.18821875 C25.782134,5.44071094 26.7319924,5.89830469 27.5485113,6.51058594 L27.5485113,6.51058594 Z M15.3490414,1.40625 L16.6328499,1.40625 C18.0541714,1.40625 19.4005823,1.99877344 20.3541897,3.0189375 L19.7568145,3.43490625 C19.5647632,3.56864063 19.378583,3.70870313 19.1972837,3.85382813 C18.5187022,3.19310156 17.5998974,2.8125 16.6328499,2.8125 L15.3490414,2.8125 C14.3822061,2.8125 13.4636842,3.19289063 12.7851735,3.85326563 C12.6040157,3.70835156 12.4179062,3.5685 12.2259963,3.43490625 L11.627843,3.01872656 C12.5813798,1.99870313 13.9277906,1.40625 15.3490414,1.40625 Z M7.26442209,5.18814844 L10.9874596,4.28976563 L11.414712,4.58704687 C13.8383789,6.27342187 15.285378,9.03592969 15.285378,11.9766797 L15.285378,11.97675 L15.285378,11.9768906 L15.2860146,13.78125 L6.50307817,13.78125 C6.44351749,11.2201875 5.73890477,8.72571094 4.45134721,6.51058594 C5.26779537,5.89830469 6.21772452,5.44071094 7.26442209,5.18814844 L7.26442209,5.18814844 Z M1.41467221,12.5831953 C1.41467221,10.6408125 2.1470139,8.845875 3.3803868,7.48610156 C4.50291459,9.52178906 5.09300388,11.8028672 5.09300388,14.135625 L5.09300388,29.7421875 L1.41467221,29.7421875 L1.41467221,12.5831953 Z M4.3856324,32.5546875 L2.12204368,32.5546875 L2.12204368,31.1484375 L4.3856324,31.1484375 L4.3856324,32.5546875 Z M24.3379644,34.59375 L7.63954118,34.59375 L7.63954118,33.1875 L24.3379644,33.1875 L24.3379644,34.59375 L24.3379644,34.59375 Z M29.8778148,32.5546875 L27.6142261,32.5546875 L27.6142261,31.1484375 L29.8778148,31.1484375 L29.8778148,32.5546875 Z" id="XMLID_171_" fill="#000000"></path>
                    <path d="M31.5,20 C31.368,20 31.239,20.0535 31.1465,20.1465 C31.053,20.2395 31,20.3685 31,20.5 C31,20.632 31.053,20.761 31.1465,20.8535 C31.239,20.947 31.368,21 31.5,21 C31.6315,21 31.7605,20.947 31.8535,20.8535 C31.9465,20.7605 32,20.632 32,20.5 C32,20.3685 31.9465,20.2395 31.8535,20.1465 C31.7605,20.0535 31.6315,20 31.5,20 Z" id="XMLID_1069_" fill="#000000"></path>
                </g>
            </g>
        </g>
    </g>
</svg>