<?xml version="1.0" encoding="UTF-8"?>
<svg width="65px" height="65px" viewBox="0 0 65 65" version="1.1" xmlns="http://www.w3.org/2000/svg" xmlns:xlink="http://www.w3.org/1999/xlink">
    <!-- Generator: Sketch 59.1 (86144) - https://sketch.com -->
    <title>Group 2</title>
    <desc>Created with Sketch.</desc>
    <g id="Page-1" stroke="none" stroke-width="1" fill="none" fill-rule="evenodd">
        <g id="Homescreen" transform="translate(-29.000000, -495.000000)">
            <g id="Group-2" transform="translate(29.000000, 495.000000)">
                <circle id="Oval" fill="#FFFFFF" cx="32.5" cy="32.5" r="32.5"></circle>
                <g id="charging" transform="translate(14.000000, 15.000000)" fill-rule="nonzero">
                    <path d="M36.1190476,9.45021645 L36.1190476,17.8593074 C36.1190476,19.1867424 35.0677778,20.2619048 33.7698413,20.2619048 L32.5952381,20.2619048 L32.5952381,18.4599567 L32.5952381,17.258658 L32.5952381,10.0508658 L32.5952381,8.8495671 L32.5952381,7.04761905 L33.7698413,7.04761905 C35.0677778,7.04761905 36.1190476,8.12278139 36.1190476,9.45021645 Z" id="Path" fill="#CCD1D9"></path>
                    <polygon id="Path" fill="#E6E9ED" points="14.9761905 7.04761905 32.5952381 7.04761905 32.5952381 8.8495671 32.5952381 10.0508658 32.5952381 17.258658 32.5952381 18.4599567 32.5952381 20.2619048 20.8492063 20.2619048 17.3253968 20.2619048 14.9761905 20.2619048"></polygon>
                    <circle id="Oval" fill="#FF6977" cx="25.547619" cy="13.2142857" r="4.4047619"></circle>
                    <path d="M14.9761905,3.08333333 L14.9761905,5.28571429 L0.880952381,5.28571429 L0.880952381,3.08333333 C0.880952381,1.86651786 1.93222222,0.880952381 3.23015873,0.880952381 L12.6269841,0.880952381 C13.9249206,0.880952381 14.9761905,1.86651786 14.9761905,3.08333333 Z" id="Path" fill="#AAB2BD"></path>
                    <path d="M14.9761905,21.1428571 L14.9761905,23.3452381 C14.9761905,24.5620536 13.9249206,25.547619 12.6269841,25.547619 L3.23015873,25.547619 C1.93222222,25.547619 0.880952381,24.5620536 0.880952381,23.3452381 L0.880952381,21.1428571 L14.9761905,21.1428571 Z" id="Path" fill="#AAB2BD"></path>
                    <polygon id="Path" fill="#DFF6FC" points="14.9761905 19.9230769 14.9761905 21.1428571 0.880952381 21.1428571 0.880952381 5.28571429 14.9761905 5.28571429 14.9761905 6.50549451"></polygon>
                    <path d="M21.1428571,19.3809524 L21.1428571,21.1428571 C21.1428571,22.1177778 20.355873,22.9047619 19.3809524,22.9047619 C18.8934921,22.9047619 18.4530159,22.7050794 18.135873,22.3879365 C17.8187302,22.0707937 17.6190476,21.6303175 17.6190476,21.1428571 L17.6190476,19.3809524 L21.1428571,19.3809524 Z" id="Path" fill="#B4DD7F"></path>
                    <path d="M36.1190476,28.484127 L36.1190476,32.5952381 L34.8857143,32.5952381 L31.1857143,32.5952381 L29.952381,32.5952381 L29.952381,28.484127 C29.952381,26.8631746 31.3337143,25.547619 33.0357143,25.547619 C33.8867143,25.547619 34.6575476,25.8765079 35.2187143,26.4050794 C35.7737143,26.9395238 36.1190476,27.6736508 36.1190476,28.484127 Z" id="Path" fill="#B4DD7F"></path>
                    <polygon id="Path" fill="#000000" points="4.4047619 1.76190476 6.16666667 1.76190476 6.16666667 3.52380952 4.4047619 3.52380952"></polygon>
                    <polygon id="Path" fill="#000000" points="7.04761905 1.76190476 8.80952381 1.76190476 8.80952381 3.52380952 7.04761905 3.52380952"></polygon>
                    <polygon id="Path" fill="#000000" points="9.69047619 1.76190476 11.452381 1.76190476 11.452381 3.52380952 9.69047619 3.52380952"></polygon>
                    <polygon id="Path" fill="#000000" points="5.28571429 22.9047619 9.69047619 22.9047619 9.69047619 24.6666667 5.28571429 24.6666667"></polygon>
                    <polygon id="Path" fill="#000000" points="31.7142857 9.69047619 33.4761905 9.69047619 33.4761905 16.7380952 31.7142857 16.7380952"></polygon>
                    <polygon id="Path" fill="#000000" points="25.6519552 11.1027338 24.5623305 10.5714286 22.9047619 13.8085868 25.3396773 13.8085868 24.5623305 15.3258376 25.6519552 15.8571429 27.3095238 12.6199846 24.8746084 12.6199846"></polygon>
                    <path d="M25.1071429,8.80952381 C22.4355997,8.80952381 20.2619048,10.9832187 20.2619048,13.6547619 C20.2619048,16.3263051 22.4355997,18.5 25.1071429,18.5 C27.778686,18.5 29.952381,16.3263051 29.952381,13.6547619 C29.952381,10.9832187 27.778686,8.80952381 25.1071429,8.80952381 Z M25.1071429,17.2886905 C23.1030312,17.2886905 21.4732143,15.6588735 21.4732143,13.6547619 C21.4732143,11.6506503 23.1030312,10.0208333 25.1071429,10.0208333 C27.1112545,10.0208333 28.7410714,11.6506503 28.7410714,13.6547619 C28.7410714,15.6588735 27.1112545,17.2886905 25.1071429,17.2886905 Z" id="Shape" fill="#000000"></path>
                    <polygon id="Path" fill="#000000" points="16.7380952 7.92857143 18.5 7.92857143 18.5 9.69047619 16.7380952 9.69047619"></polygon>
                    <polygon id="Path" fill="#000000" points="16.7380952 10.5714286 18.5 10.5714286 18.5 12.3333333 16.7380952 12.3333333"></polygon>
                    <polygon id="Path" fill="#000000" points="16.7380952 12.3333333 18.5 12.3333333 18.5 14.0952381 16.7380952 14.0952381"></polygon>
                    <path d="M21.483871,21.483871 L21.483871,20.2903226 L34.016129,20.2903226 C35.6614355,20.2903226 37,18.9517581 37,17.3064516 L37,8.9516129 C37,7.30630645 35.6614355,5.96774194 34.016129,5.96774194 L15.516129,5.96774194 L15.516129,2.98387097 C15.516129,1.33856452 14.1775645,0 12.5322581,0 L2.98387097,0 C1.33856452,0 0,1.33856452 0,2.98387097 L0,23.2741935 C0,24.9195 1.33856452,26.2580645 2.98387097,26.2580645 L12.5322581,26.2580645 C14.1775645,26.2580645 15.516129,24.9195 15.516129,23.2741935 L15.516129,20.2903226 L16.7096774,20.2903226 L16.7096774,21.483871 C16.7096774,22.5932742 17.4729516,23.5194677 18.5,23.7862258 L18.5,32.5241935 C18.5,34.9924516 20.5075484,37 22.9758065,37 C25.4440645,37 27.4516129,34.9924516 27.4516129,32.5241935 L27.4516129,25.3629032 C27.4516129,23.8823065 28.6565,22.6774194 30.1370968,22.6774194 C31.5353387,22.6774194 32.6745806,23.7551935 32.7981129,25.1224032 C31.1193871,25.4172097 29.8387097,26.8828871 29.8387097,28.6451613 L29.8387097,33.4193548 L31.0322581,33.4193548 L31.0322581,37 L32.2258065,37 L32.2258065,33.4193548 L34.6129032,33.4193548 L34.6129032,37 L35.8064516,37 L35.8064516,33.4193548 L37,33.4193548 L37,28.6451613 C37,26.8703548 35.7002258,25.3969194 34.0035968,25.1164355 C33.8752903,23.0927742 32.1929839,21.483871 30.1370968,21.483871 C27.9982581,21.483871 26.2580645,23.2240645 26.2580645,25.3629032 L26.2580645,32.5241935 C26.2580645,34.3336129 24.7852258,35.8064516 22.9758065,35.8064516 C21.1663871,35.8064516 19.6935484,34.3336129 19.6935484,32.5241935 L19.6935484,23.7862258 C20.7205968,23.5194677 21.483871,22.5932742 21.483871,21.483871 Z M35.8064516,28.6451613 L35.8064516,32.2258065 L31.0322581,32.2258065 L31.0322581,28.6451613 C31.0322581,27.3286774 32.102871,26.2580645 33.4193548,26.2580645 C34.7358387,26.2580645 35.8064516,27.3286774 35.8064516,28.6451613 Z M2.98387097,1.19354839 L12.5322581,1.19354839 C13.5193226,1.19354839 14.3225806,1.99680645 14.3225806,2.98387097 L14.3225806,4.77419355 L1.19354839,4.77419355 L1.19354839,2.98387097 C1.19354839,1.99680645 1.99680645,1.19354839 2.98387097,1.19354839 Z M14.3225806,5.96774194 L14.3225806,20.2903226 L1.19354839,20.2903226 L1.19354839,5.96774194 L14.3225806,5.96774194 Z M12.5322581,25.0645161 L2.98387097,25.0645161 C1.99680645,25.0645161 1.19354839,24.2612581 1.19354839,23.2741935 L1.19354839,21.483871 L14.3225806,21.483871 L14.3225806,23.2741935 C14.3225806,24.2612581 13.5193226,25.0645161 12.5322581,25.0645161 Z M15.516129,7.16129032 L32.2258065,7.16129032 L32.2258065,8.35483871 L33.4193548,8.35483871 L33.4193548,7.16129032 L34.016129,7.16129032 C35.0031935,7.16129032 35.8064516,7.96454839 35.8064516,8.9516129 L35.8064516,17.3064516 C35.8064516,18.2935161 35.0031935,19.0967742 34.016129,19.0967742 L33.4193548,19.0967742 L33.4193548,17.9032258 L32.2258065,17.9032258 L32.2258065,19.0967742 L15.516129,19.0967742 L15.516129,7.16129032 Z M17.9032258,21.483871 L17.9032258,20.2903226 L20.2903226,20.2903226 L20.2903226,21.483871 C20.2903226,22.1421129 19.7550161,22.6774194 19.0967742,22.6774194 C18.4385323,22.6774194 17.9032258,22.1421129 17.9032258,21.483871 Z" id="Shape" fill="#000000"></path>
                </g>
            </g>
        </g>
    </g>
</svg>