<?xml version="1.0" encoding="UTF-8"?>
<svg width="65px" height="65px" viewBox="0 0 65 65" version="1.1" xmlns="http://www.w3.org/2000/svg" xmlns:xlink="http://www.w3.org/1999/xlink">
    <!-- Generator: Sketch 59.1 (86144) - https://sketch.com -->
    <title>Group 3 Copy</title>
    <desc>Created with Sketch.</desc>
    <g id="Page-1" stroke="none" stroke-width="1" fill="none" fill-rule="evenodd">
        <g id="Homescreen" transform="translate(-155.000000, -610.000000)">
            <g id="Group-3-Copy" transform="translate(155.000000, 610.000000)">
                <circle id="Oval-Copy-6" fill="#FFFFFF" cx="32.5" cy="32.5" r="32.5"></circle>
                <g id="makeup" transform="translate(14.000000, 14.000000)" fill-rule="nonzero">
                    <rect id="Rectangle" fill="#DFF6FC" x="17" y="28" width="3" height="5"></rect>
                    <g id="Group" transform="translate(4.000000, 1.000000)">
                        <path d="M16.5672,33.0693955 L11.5016,33.0693955 C9.89258182,33.0693955 8.58829091,34.3790507 8.58829091,35.9945233 L8.58829091,35.9945233 L19.4805818,35.9945233 L19.4805818,35.9945233 C19.4805818,34.3790507 18.1761455,33.0693955 16.5672,33.0693955 Z" id="Path" fill="#DFF6FC"></path>
                        <path d="M23.9069818,24.0030183 C29.3595636,18.5283164 29.3595636,9.65223529 23.9069818,4.17753347 C18.4544,-1.29716836 9.61418182,-1.29716836 4.1616,4.17753347 C2.24145455,6.10546856 0.997527273,8.45525355 0.429745455,10.9297606 C-0.614690909,15.4819716 0.629236364,20.4562515 4.1616,24.0030183 C4.72065455,24.5643408 5.31541818,25.0681947 5.9384,25.5144341 C11.3915636,29.4201785 19.0136,28.9163245 23.9069818,24.0030183 Z" id="Path" fill="#E5E5E5"></path>
                    </g>
                    <g id="Group" transform="translate(2.000000, 4.000000)">
                        <path d="M26.996815,10.5333529 C26.996815,4.75508304 22.3305201,0.0708477509 16.5743807,0.0708477509 C10.8182413,0.0708477509 6.15194638,4.75508304 6.15194638,10.5333529 C6.15194638,16.3116228 10.8182413,20.9958581 16.5743807,20.9958581 C19.2700375,20.9958581 21.7266756,19.9686021 23.5769357,18.2826436 C25.6776515,16.3685917 26.996815,13.6056021 26.996815,10.5333529 Z" id="Path" fill="#DFF6FC"></path>
                        <path d="M7.0205067,19.8333737 L0.0722412869,19.8333737 L0.0722412869,15.9099343 C0.0722412869,15.5086817 0.396313673,15.1833633 0.796029491,15.1833633 L6.29679088,15.1833633 C6.6965067,15.1833633 7.02057909,15.508609 7.02057909,15.9099343 L7.02057909,19.8333737 L7.0205067,19.8333737 Z" id="Path" fill="#E4E8FF"></path>
                    </g>
                    <path d="M8,19 L3,19 L3,12.493444 C3,11.3663599 4.11963829,10.6465415 5.04487999,11.178873 L7.26707134,12.4574233 C7.71830203,12.7171008 8,13.2222117 8,13.7719943 L8,19 L8,19 Z" id="Path" fill="#FF6977"></path>
                    <path d="M8.63635537,36 L2.36364463,36 C1.61049657,36 1,35.323245 1,34.4883563 L1,23.7558219 C1,23.3384153 1.30528238,23 1.68182231,23 L9.31817769,23 C9.69471762,23 10,23.3384153 10,23.7558219 L10,34.4883563 C10,35.323245 9.38950343,36 8.63635537,36 Z" id="Path" fill="#E5E5E5"></path>
                    <path d="M33.1471533,26 L26.6716847,26 L24.5485073,21.4470096 C23.4871741,19.1710924 23.9958284,16.4797891 25.8165292,14.737176 L25.8993945,14.6578415 C28.2090372,12.4473862 31.8738017,12.4473862 34.1834444,14.6578415 L34.1834444,14.6578415 C36.0443732,16.4388213 36.5303948,19.2051961 35.3861232,21.5032952 L33.1471533,26 Z" id="Path" fill="#B4DD7F"></path>
                    <path d="M31.9998644,36 L30.0002712,36 C28.8955699,36 28,35.0298092 28,33.8330618 L28,25 L34,25 L34,33.8330618 C34,35.0298092 33.1044978,36 31.9998644,36 Z" id="Path" fill="#FF6977"></path>
                    <rect id="Rectangle" fill="#FEE891" x="28" y="26" width="6" height="3"></rect>
                    <path d="M14.4997498,20 C14.6318291,20 14.7603562,19.9464946 14.8539123,19.8534853 C14.9469682,19.760476 15,19.6314631 15,19.5 C15,19.3685369 14.9469682,19.239524 14.8539123,19.1465147 C14.7603562,19.0535054 14.6318291,19 14.4997498,19 C14.3681709,19 14.2391435,19.0535054 14.1460877,19.1465147 C14.0530318,19.239524 14,19.3685369 14,19.5 C14,19.6314631 14.0530318,19.760476 14.1460877,19.8534853 C14.2395938,19.9464946 14.3681709,20 14.4997498,20 Z" id="Path" fill="#000000"></path>
                    <path d="M34.9774527,13.5827662 C34.3680388,12.9932656 33.6634514,12.5346768 32.90004,12.21965 C32.4044441,9.19364324 30.995197,6.44659211 28.8187808,4.2694518 C23.127738,-1.4231506 13.8678698,-1.4231506 8.17689934,4.2694518 C6.37423958,6.07265138 5.08206243,8.30111547 4.4165706,10.7431877 C4.00523609,10.7273568 3.59173362,10.8305827 3.2219517,11.0521424 C2.56180751,11.4474801 2.16774442,12.1429534 2.16774442,12.9125933 L2.16774442,18.6180628 C1.65798448,18.8416465 1.3006322,19.3506194 1.3006322,19.9420717 L1.3006322,23.1296399 C0.571402312,23.2024329 0,23.8196195 0,24.5679347 L0,34.8315341 C0,36.0271614 0.972475138,37 2.16774442,37 L8.81543618,37 C10.0107055,37 10.9831806,36.0271614 10.9831806,34.8315341 L10.9831806,27.1147508 C12.6287354,28.1071792 14.437321,28.7550154 16.3302402,29.034983 L16.3302402,32.6586588 L15.9811984,32.6586588 C13.9866018,32.6586588 12.3638106,34.281936 12.3638106,36.2771299 C12.3638106,36.6762987 12.6873427,37 13.0863921,37 L23.9095049,37 C24.3085542,37 24.6320863,36.6762987 24.6320863,36.2771299 C24.6320863,34.281936 23.0092951,32.6586588 21.0146985,32.6586588 L20.6658735,32.6586588 L20.6658735,29.034477 C22.6837396,28.7360039 24.6008677,28.0215191 26.3243246,26.921889 L26.3243246,34.1442292 C26.3243246,35.7189295 27.6050115,37 29.1792405,37 L31.3108522,37 C32.8850811,37 34.1657681,35.7189295 34.1657681,34.1442292 L34.1657681,25.6312044 L36.3140008,21.2704179 C37.5899905,18.6798682 37.0529865,15.5903934 34.9774527,13.5827662 Z M3.61290737,12.9125933 C3.61290737,12.5428452 3.85868191,12.3557664 3.96426162,12.292443 C4.0699136,12.2291196 4.35080911,12.1007378 4.67665368,12.2754555 L6.98885659,13.5147441 C7.22408038,13.6408127 7.3701287,13.8849259 7.3701287,14.1518096 L7.3701287,18.4964037 L3.61290737,18.4964037 L3.61290737,12.9125933 Z M2.74586742,19.942144 L8.23745772,19.942144 L8.23745772,23.1224112 L2.74586742,23.1224112 L2.74586742,19.942144 Z M9.53801766,34.8316064 C9.53801766,35.2301247 9.21383519,35.5544043 8.81543618,35.5544043 L2.16774442,35.5544043 C1.76934542,35.5544043 1.44516295,35.2301247 1.44516295,34.8316064 L1.44516295,24.5680069 L9.53801766,24.5680069 L9.53801766,34.8316064 Z M9.6825484,23.1297122 L9.6825484,19.942144 C9.6825484,19.3506917 9.32526839,18.8417188 8.81543618,18.6181351 L8.81543618,14.1519541 C8.81543618,13.3511586 8.37714669,12.6188188 7.67154758,12.2406855 L5.78310882,11.228595 C6.37373372,8.98798668 7.54869644,6.94248103 9.19887625,5.29180705 C14.3263936,0.162754213 22.6695033,0.1628265 27.7969484,5.29180705 C29.5981628,7.09356089 30.816557,9.32809708 31.3491528,11.792506 C31.029234,11.7454471 30.7039676,11.7211587 30.3753769,11.7211587 C30.003138,11.7211587 29.635524,11.7537601 29.2749198,11.8139752 C28.691666,9.55088566 27.3927681,7.50415113 25.5765948,6.00477387 C23.5908868,4.36552124 21.0769913,3.46272872 18.4981291,3.46272872 C16.5415441,3.46272872 14.6171172,3.97799056 12.9327559,4.95292552 C11.2993416,5.89836739 9.92246945,7.25374891 8.95093376,8.87276118 C8.74555556,9.21496791 8.85641065,9.65902704 9.19865946,9.86446673 C9.54076374,10.0697619 9.98461767,9.95901815 10.1899959,9.61666685 C11.9591245,6.66844095 15.065018,4.90817986 18.4981291,4.90817986 C19.4244989,4.90817986 20.3265876,5.04133254 21.1841608,5.29065046 L15.8516266,10.6247093 C15.5694303,10.9069901 15.5694303,11.3646391 15.8516266,11.6468477 C15.9927609,11.7880242 16.1776157,11.8585763 16.3625428,11.8585763 C16.5474699,11.8585763 16.732397,11.7879519 16.873459,11.6468477 L22.6626381,5.8560072 C23.5835157,6.29710256 24.428298,6.88016962 25.1654771,7.57940191 L15.8810386,16.866693 C15.5988423,17.1489738 15.5988423,17.6066229 15.8810386,17.8889037 C16.0221729,18.0300802 16.2070277,18.1006323 16.3919548,18.1006323 C16.5768819,18.1006323 16.761809,18.0300802 16.902871,17.8889037 L26.1386748,8.65033403 C26.9450842,9.68230346 27.5492227,10.8854485 27.8838114,12.2053371 C27.1074644,12.5207254 26.3914591,12.9847357 25.7730843,13.5829108 L25.6911354,13.6622096 C23.6707401,15.6165613 23.1045409,18.644809 24.2821774,21.1974803 L24.6759514,22.0511177 C22.9413656,23.4907858 20.7641544,24.2789312 18.4978401,24.2789312 C16.6284071,24.2789312 14.8142571,23.7452361 13.2515907,22.7354588 C12.9164239,22.5187424 12.4691012,22.615101 12.2525942,22.9504404 C12.0360148,23.2857076 12.1322723,23.7331642 12.4675114,23.9497361 C14.2643176,25.1107378 16.3496073,25.7244546 18.4979123,25.7244546 C20.9741576,25.7244546 23.3574697,24.9052259 25.2996739,23.4027403 L26.1667138,25.2820581 C21.6909579,28.4996254 15.5119793,28.5513106 10.9831806,25.3909946 L10.9831806,24.5680069 C10.9831806,23.8196918 10.4117783,23.2025052 9.6825484,23.1297122 Z M32.7203883,26.1724172 L32.7203883,28.1720206 L27.769343,28.1720206 L27.769343,26.1724172 L32.7203883,26.1724172 Z M23.0633496,35.5544043 L13.9325473,35.5544043 C14.230931,34.7104534 15.0366177,34.1042545 15.9812707,34.1042545 L17.0528216,34.1042545 L19.9431475,34.1042545 L21.0147708,34.1042545 C21.9592792,34.1042545 22.7650381,34.7104534 23.0633496,35.5544043 Z M19.2204938,32.6586588 L17.7753308,32.6586588 L17.7753308,29.1758704 C18.013662,29.187364 18.2527882,29.1937253 18.492926,29.1937253 C18.5589043,29.1937253 18.6250994,29.1932916 18.6911499,29.1924241 C18.8682001,29.1901109 19.0445276,29.1841834 19.2204938,29.1756535 L19.2204938,32.6586588 Z M31.3106354,35.5544043 L29.1790237,35.5544043 C28.401665,35.5544043 27.7692707,34.9218206 27.7692707,34.1442292 L27.7692707,29.6175441 L32.720316,29.6175441 L32.720316,34.1442292 C32.7203883,34.9218206 32.087994,35.5544043 31.3106354,35.5544043 Z M35.0174155,20.631473 L32.9999108,24.7268938 L32.6291894,24.7268938 L32.6291894,21.7584998 C32.6291894,21.3593309 32.3057296,21.035702 31.9066079,21.035702 C31.5074863,21.035702 31.1840265,21.3593309 31.1840265,21.7584998 L31.1840265,24.7268938 L27.5021779,24.7268938 L25.5944443,20.5917151 C24.6737834,18.5962321 25.1164811,16.2291215 26.6959131,14.7011909 L26.7778621,14.621892 C28.7950777,12.6705041 31.9556039,12.6704318 33.972964,14.621892 C35.5953217,16.1913154 36.0151112,18.6063523 35.0174155,20.631473 Z" id="Shape" fill="#000000"></path>
                    <path d="M32.5,19 C32.3684868,19 32.239524,19.0535054 32.1465147,19.1465147 C32.0535054,19.239524 32,19.3685369 32,19.5 C32,19.6314631 32.0535054,19.760476 32.1465147,19.8534853 C32.239524,19.9464946 32.3685369,20 32.5,20 C32.6314631,20 32.760476,19.9464946 32.8534853,19.8534853 C32.9464946,19.760476 33,19.6314631 33,19.5 C33,19.3685369 32.9464946,19.239524 32.8534853,19.1465147 C32.760476,19.0535054 32.6315132,19 32.5,19 Z" id="Path" fill="#000000"></path>
                </g>
            </g>
        </g>
    </g>
</svg>